<?xml version="1.0" encoding="utf-8"?>
<svg width="372px" height="119px" viewBox="0 0 372 119" version="1.1" xmlns:xlink="http://www.w3.org/1999/xlink" xmlns="http://www.w3.org/2000/svg">
  <defs>
    <linearGradient gradientUnits="objectBoundingBox" x1="0.5" y1="0" x2="1" y2="0.7368421" id="gradient_1">
      <stop offset="0%" stop-color="#7AE7C7" />
      <stop offset="54.472668%" stop-color="#104F55" />
    </linearGradient>
    <path d="M0 0L224 0L224 82L0 82L0 0Z" id="path_1" />
    <clipPath id="clip_1">
      <use xlink:href="#path_1" clip-rule="evenodd" fill-rule="evenodd" />
    </clipPath>
  </defs>
  <g id="Group">
    <g id="Group">
      <path d="M0 59.5C0 26.6391 29.5492 0 66 0C102.451 0 132 26.6391 132 59.5C132 92.3609 102.451 119 66 119C29.5492 119 0 92.3609 0 59.5Z" id="Oval" fill="url(#gradient_1)" fill-rule="evenodd" stroke="none" />
      <g id="11А" transform="translate(14 17)">
        <g transform="translate(0, 16.884766)" id="11A" fill="#F1F1F1">
          <path d="M22.1851 66.2378Q22.1851 67.1899 21.7883 67.5549Q21.3916 67.9199 20.4395 67.9199L13.9014 67.9199Q12.9492 67.9199 12.5525 67.5549Q12.1558 67.1899 12.1558 66.2378L12.1558 33.0078L7.74414 35.2295Q7.10937 35.5786 6.60156 35.5151Q5.61768 35.3564 4.45923 35.0073Q3.30078 34.6582 1.9043 34.0552Q1.42822 33.7695 1.33301 33.5474Q1.20605 33.3252 1.33301 32.8174Q2.06299 30.0244 3.07861 28.2471Q3.396 27.8027 3.99902 27.5171L16.123 21.3916L22.1851 21.3916L22.1851 66.2378ZM51.1938 66.2378Q51.1938 67.1899 50.7971 67.5549Q50.4004 67.9199 49.4482 67.9199L42.9102 67.9199Q41.958 67.9199 41.5613 67.5549Q41.1646 67.1899 41.1646 66.2378L41.1646 33.0078L36.7529 35.2295Q36.1182 35.5786 35.6104 35.5151Q34.6265 35.3564 33.468 35.0073Q32.3096 34.6582 30.9131 34.0552Q30.437 33.7695 30.3418 33.5474Q30.2148 33.3252 30.3418 32.8174Q31.0718 30.0244 32.0874 28.2471Q32.4048 27.8027 33.0078 27.5171L45.1318 21.3916L51.1938 21.3916L51.1938 66.2378ZM87.5977 24.9146Q89.3433 27.3584 91.1682 31.2146Q92.9932 35.0708 94.707 39.6729Q96.4209 44.2749 97.8015 49.0833Q99.1821 53.8916 100.071 58.335Q100.959 62.7783 101.086 66.2378Q101.118 67.9199 99.563 67.9199L91.8823 67.9199Q90.3906 67.9199 90.3271 66.4282Q90.2002 62.8735 89.1846 57.7954L71.8555 57.7954Q70.9668 62.7466 70.8398 66.4282Q70.7764 67.9199 69.2212 67.9199L61.6992 67.9199Q61.1279 67.9199 60.7471 67.5867Q60.3662 67.2534 60.3979 66.4282Q60.5566 62.9053 61.4294 58.4143Q62.3022 53.9233 63.6987 49.0991Q65.0952 44.2749 66.8091 39.657Q68.5229 35.0391 70.3638 31.1987Q72.2046 27.3584 73.9502 24.9146Q74.8706 23.6133 75.9021 23.0103Q76.9336 22.4072 78.457 22.4072L83.0273 22.4072Q84.5825 22.4072 85.6299 23.0103Q86.6772 23.6133 87.5977 24.9146ZM80.4248 32.4365Q78.3301 35.769 76.5845 40.4028Q74.8389 45.0366 73.5693 49.9243L87.3438 49.9243Q86.0107 45.0366 84.2651 40.4028Q82.5195 35.769 80.6152 32.4365L80.4248 32.4365Z" />
        </g>
      </g>
    </g>
    <g id="Блог-11А-Столинской-государств" clip-path="url(#clip_1)" transform="translate(148 29)">
      <g transform="translate(0, 3.0283203)" id="Блог-11А-Столинской-">
        <path d="M0.232422 3.20605L8.23047 3.20605L8.23047 5.72168L7.9707 5.72168Q7.84082 5.02441 7.5332 4.5835Q7.22559 4.14258 6.80176 3.9751Q6.37793 3.80762 5.50293 3.80762L3.80762 3.80762L3.80762 7.41699L5.03125 7.41699Q7.01367 7.41699 7.90918 8.11426Q8.80469 8.81152 8.80469 9.97363Q8.80469 10.7666 8.3501 11.3408Q7.89551 11.915 7.2085 12.1953Q6.52148 12.4756 5.20215 12.4756L0.232422 12.4756L0.232422 12.2227Q1.09375 12.209 1.33643 11.9937Q1.5791 11.7783 1.5791 11.0537L1.5791 4.70996Q1.5791 3.92383 1.33301 3.69141Q1.08691 3.45898 0.232422 3.45898L0.232422 3.20605ZM3.80762 8.01855L3.80762 10.8145Q3.80762 11.4775 3.99219 11.7476Q4.17676 12.0176 4.67578 12.0176Q5.47558 12.0176 5.88232 11.4775Q6.28906 10.9375 6.28906 10.1309Q6.28906 9.35156 5.91992 8.82178Q5.55078 8.29199 5.09619 8.15527Q4.6416 8.01855 3.80762 8.01855ZM13.0293 12.4756L13.0293 12.2227Q13.3711 12.2158 13.5933 12.0552Q13.8154 11.8945 13.8154 11.334L13.8154 6.51465L12.0107 6.51465L12.0107 9.31055Q12.0107 10.8213 11.8604 11.3955Q11.71 11.9697 11.2793 12.2773Q10.8486 12.585 10.3633 12.585Q9.81641 12.585 9.48486 12.2534Q9.15332 11.9219 9.15332 11.4912Q9.15332 11.0742 9.396 10.811Q9.63867 10.5479 10.0215 10.5479Q10.7529 10.5479 10.7529 11.4365Q10.7529 11.8398 10.9102 11.8398Q11.2109 11.8398 11.375 11.3408Q11.5391 10.8418 11.5391 9.31055L11.5391 7.45117Q11.5391 6.82227 11.3682 6.58984Q11.1973 6.35742 10.7803 6.33691L10.7803 6.08398L16.4131 6.08398L16.4131 6.33691Q15.7295 6.35059 15.7295 7.19824L15.7295 11.3066Q15.7295 11.7783 15.873 11.9937Q16.0166 12.209 16.4131 12.2227L16.4131 12.4756L13.0293 12.4756ZM20.4121 5.89258Q21.2461 5.89258 21.9639 6.32324Q22.6816 6.75391 23.0542 7.54688Q23.4268 8.33984 23.4268 9.2832Q23.4268 10.6436 22.7363 11.5596Q21.9023 12.667 20.4326 12.667Q18.9902 12.667 18.2109 11.6553Q17.4316 10.6436 17.4316 9.31055Q17.4316 7.93652 18.228 6.91455Q19.0244 5.89258 20.4121 5.89258ZM20.4395 6.37793Q20.0908 6.37793 19.8413 6.64111Q19.5918 6.9043 19.5132 7.68018Q19.4346 8.45605 19.4346 9.83691Q19.4346 10.5684 19.5303 11.2041Q19.6055 11.6895 19.8516 11.9424Q20.0977 12.1953 20.4121 12.1953Q20.7197 12.1953 20.9248 12.0244Q21.1914 11.792 21.2803 11.375Q21.417 10.7256 21.417 8.75Q21.417 7.58789 21.2871 7.15381Q21.1572 6.71973 20.9043 6.52148Q20.7266 6.37793 20.4395 6.37793ZM24.418 12.2227Q24.8145 12.1953 24.9717 12.0142Q25.1289 11.833 25.1289 11.293L25.1289 7.23242Q25.1289 6.74707 24.9819 6.55908Q24.835 6.37109 24.418 6.33691L24.418 6.08398L30.0371 6.08398L30.0371 7.75195L29.7842 7.75195Q29.627 6.97266 29.3535 6.74365Q29.0801 6.51465 28.3076 6.51465L27.043 6.51465L27.043 11.334Q27.043 11.8125 27.2002 12.0107Q27.3574 12.209 27.8359 12.2227L27.8359 12.4756L24.418 12.4756L24.418 12.2227ZM38.3428 3.01465L38.3428 10.5957Q38.3428 11.4502 38.418 11.686Q38.4932 11.9219 38.7324 12.0723Q38.9717 12.2227 39.498 12.2227L39.71 12.2227L39.71 12.4756L34.8291 12.4756L34.8291 12.2227L35.0752 12.2227Q35.6699 12.2227 35.9229 12.0859Q36.1758 11.9492 36.2646 11.71Q36.3535 11.4707 36.3535 10.5957L36.3535 5.79004Q36.3535 5.14746 36.292 4.98682Q36.2305 4.82617 36.063 4.71338Q35.8955 4.60059 35.6768 4.60059Q35.3281 4.60059 34.8291 4.81934L34.7061 4.57324L38.1172 3.01465L38.3428 3.01465ZM44.5703 3.01465L44.5703 10.5957Q44.5703 11.4502 44.6455 11.686Q44.7207 11.9219 44.96 12.0723Q45.1992 12.2227 45.7256 12.2227L45.9375 12.2227L45.9375 12.4756L41.0566 12.4756L41.0566 12.2227L41.3027 12.2227Q41.8975 12.2227 42.1504 12.0859Q42.4033 11.9492 42.4922 11.71Q42.5811 11.4707 42.5811 10.5957L42.5811 5.79004Q42.5811 5.14746 42.5195 4.98682Q42.458 4.82617 42.2905 4.71338Q42.123 4.60059 41.9043 4.60059Q41.5557 4.60059 41.0566 4.81934L40.9336 4.57324L44.3447 3.01465L44.5703 3.01465ZM52.835 9.83691L49.5605 9.83691L49.1709 10.7393Q48.9795 11.1904 48.9795 11.4844Q48.9795 11.874 49.2939 12.0586Q49.4785 12.168 50.2031 12.2227L50.2031 12.4756L47.1201 12.4756L47.1201 12.2227Q47.6191 12.1475 47.9404 11.8091Q48.2617 11.4707 48.7334 10.4111L52.0488 3.01465L52.1787 3.01465L55.5215 10.6162Q56 11.6963 56.3076 11.9766Q56.54 12.1885 56.9639 12.2227L56.9639 12.4756L52.4795 12.4756L52.4795 12.2227L52.6641 12.2227Q53.2041 12.2227 53.4229 12.0723Q53.5732 11.9629 53.5732 11.7578Q53.5732 11.6348 53.5322 11.5049Q53.5186 11.4434 53.3271 10.9922L52.835 9.83691ZM52.6025 9.33105L51.2217 6.13867L49.7998 9.33105L52.6025 9.33105ZM69.9658 2.99414L69.9658 6.20703L69.6992 6.20703Q69.3984 4.94922 68.5781 4.2793Q67.7578 3.60938 66.7188 3.60938Q65.8506 3.60938 65.126 4.1084Q64.4014 4.60742 64.0664 5.41406Q63.6357 6.44629 63.6357 7.71094Q63.6357 8.95508 63.9502 9.97705Q64.2646 10.999 64.9346 11.522Q65.6045 12.0449 66.6709 12.0449Q67.5459 12.0449 68.2739 11.6621Q69.002 11.2793 69.8086 10.3428L69.8086 11.1426Q69.0293 11.9561 68.1851 12.3218Q67.3408 12.6875 66.2129 12.6875Q64.7295 12.6875 63.5776 12.0928Q62.4258 11.498 61.8003 10.3838Q61.1748 9.26953 61.1748 8.01172Q61.1748 6.68555 61.8687 5.49609Q62.5625 4.30664 63.7417 3.65039Q64.9209 2.99414 66.2471 2.99414Q67.2246 2.99414 68.3115 3.41797Q68.9404 3.66406 69.1113 3.66406Q69.3301 3.66406 69.4907 3.50342Q69.6514 3.34277 69.6992 2.99414L69.9658 2.99414ZM72.3105 12.4756L72.3105 12.2227Q72.7207 12.2227 72.8745 12.0107Q73.0283 11.7988 73.0283 11.1699L73.0283 6.51465L72.3926 6.51465Q71.7227 6.51465 71.4629 6.75391Q71.2031 6.99316 71.0527 7.75195L70.7998 7.75195L70.7998 6.08398L77.1709 6.08398L77.1709 7.75195L76.918 7.75195Q76.7949 7.06836 76.5557 6.7915Q76.3164 6.51465 75.5918 6.51465L74.9424 6.51465L74.9424 11.1699Q74.9424 11.8193 75.0962 12.0176Q75.25 12.2158 75.6602 12.2227L75.6602 12.4756L72.3105 12.4756ZM80.7256 5.89258Q81.5596 5.89258 82.2773 6.32324Q82.9951 6.75391 83.3677 7.54688Q83.7402 8.33984 83.7402 9.2832Q83.7402 10.6436 83.0498 11.5596Q82.2158 12.667 80.7461 12.667Q79.3037 12.667 78.5244 11.6553Q77.7451 10.6436 77.7451 9.31055Q77.7451 7.93652 78.5415 6.91455Q79.3379 5.89258 80.7256 5.89258ZM80.7529 6.37793Q80.4043 6.37793 80.1548 6.64111Q79.9053 6.9043 79.8267 7.68018Q79.748 8.45605 79.748 9.83691Q79.748 10.5684 79.8438 11.2041Q79.9189 11.6895 80.165 11.9424Q80.4111 12.1953 80.7256 12.1953Q81.0332 12.1953 81.2383 12.0244Q81.5049 11.792 81.5938 11.375Q81.7305 10.7256 81.7305 8.75Q81.7305 7.58789 81.6006 7.15381Q81.4707 6.71973 81.2178 6.52148Q81.04 6.37793 80.7529 6.37793ZM88.0127 12.4756L88.0127 12.2227Q88.3545 12.2158 88.5767 12.0552Q88.7988 11.8945 88.7988 11.334L88.7988 6.51465L86.9941 6.51465L86.9941 9.31055Q86.9941 10.8213 86.8438 11.3955Q86.6934 11.9697 86.2627 12.2773Q85.832 12.585 85.3467 12.585Q84.7998 12.585 84.4683 12.2534Q84.1367 11.9219 84.1367 11.4912Q84.1367 11.0742 84.3794 10.811Q84.6221 10.5479 85.0049 10.5479Q85.7363 10.5479 85.7363 11.4365Q85.7363 11.8398 85.8936 11.8398Q86.1943 11.8398 86.3584 11.3408Q86.5225 10.8418 86.5225 9.31055L86.5225 7.45117Q86.5225 6.82227 86.3516 6.58984Q86.1807 6.35742 85.7637 6.33691L85.7637 6.08398L91.3965 6.08398L91.3965 6.33691Q90.7129 6.35059 90.7129 7.19824L90.7129 11.3066Q90.7129 11.7783 90.8564 11.9937Q91 12.209 91.3965 12.2227L91.3965 12.4756L88.0127 12.4756ZM96.2363 12.4756L96.2363 12.2227Q96.8516 12.2227 96.8516 11.3066L96.8516 8.17578L95.0195 11.3066Q95.0264 12.2021 95.6416 12.2227L95.6416 12.4756L92.3877 12.4756L92.3877 12.2227Q92.7773 12.2227 92.9414 12.0039Q93.1055 11.7852 93.1055 11.2383L93.1055 7.29395Q93.1055 6.33691 92.3877 6.33691L92.3877 6.08398L95.6416 6.08398L95.6416 6.33691Q95.2861 6.35059 95.1528 6.54199Q95.0195 6.7334 95.0195 7.29395L95.0195 10.4111L96.8516 7.23926Q96.8447 6.7334 96.7012 6.53516Q96.5576 6.33691 96.2363 6.33691L96.2363 6.08398L99.4902 6.08398L99.4902 6.33691Q99.1211 6.34375 98.9434 6.52148Q98.7656 6.69922 98.7656 7.20508L98.7656 11.2725Q98.7656 11.8398 98.9263 12.0313Q99.0869 12.2227 99.4902 12.2227L99.4902 12.4756L96.2363 12.4756ZM100.454 12.4756L100.454 12.2227Q100.851 12.2227 101.011 12.021Q101.172 11.8193 101.172 11.252L101.172 7.32813Q101.172 6.72656 101.015 6.53174Q100.857 6.33691 100.454 6.33691L100.454 6.08398L103.708 6.08398L103.708 6.33691Q103.366 6.35059 103.226 6.51465Q103.086 6.67871 103.086 7.25977L103.086 8.94824L104.918 8.94824L104.918 7.25977Q104.918 6.78125 104.815 6.55908Q104.713 6.33691 104.303 6.33691L104.303 6.08398L107.55 6.08398L107.55 6.33691Q107.153 6.33691 106.993 6.53174Q106.832 6.72656 106.832 7.18457L106.832 11.252Q106.832 11.8535 106.989 12.0313Q107.146 12.209 107.55 12.2227L107.55 12.4756L104.303 12.4756L104.303 12.2227Q104.645 12.2158 104.781 12.062Q104.918 11.9082 104.918 11.2998L104.918 9.37891L103.086 9.37891L103.086 11.252Q103.086 11.8604 103.226 12.0415Q103.366 12.2227 103.708 12.2227L103.708 12.4756L100.454 12.4756ZM113.729 10.8281L113.941 10.9922Q113.49 11.8398 112.817 12.2534Q112.144 12.667 111.385 12.667Q110.106 12.667 109.341 11.7031Q108.575 10.7393 108.575 9.38574Q108.575 8.08008 109.272 7.08887Q110.113 5.89258 111.59 5.89258Q112.581 5.89258 113.166 6.3916Q113.75 6.89063 113.75 7.50586Q113.75 7.89551 113.514 8.12793Q113.278 8.36035 112.896 8.36035Q112.492 8.36035 112.229 8.09375Q111.966 7.82715 111.904 7.14355Q111.863 6.71289 111.706 6.54199Q111.549 6.37109 111.337 6.37109Q111.009 6.37109 110.776 6.71973Q110.421 7.24609 110.421 8.33301Q110.421 9.23535 110.708 10.0591Q110.995 10.8828 111.494 11.2861Q111.87 11.5801 112.383 11.5801Q112.718 11.5801 113.019 11.4229Q113.319 11.2656 113.729 10.8281ZM114.741 6.08398L117.995 6.08398L117.995 6.33691Q117.626 6.35059 117.5 6.54199Q117.373 6.7334 117.373 7.35547L117.373 8.92773Q118.139 8.92773 118.422 8.67822Q118.706 8.42871 118.966 7.72461Q119.328 6.7334 119.701 6.354Q120.073 5.97461 120.716 5.97461Q121.256 5.97461 121.659 6.27881Q122.063 6.58301 122.063 7.08203Q122.063 7.46484 121.827 7.73486Q121.591 8.00488 121.215 8.00488Q120.442 8.00488 120.429 7.21191Q120.422 6.6582 120.189 6.6582Q119.841 6.6582 119.485 7.59473Q119.198 8.36035 119.089 8.55859Q118.979 8.75684 118.713 8.99609Q119.403 9.13281 119.714 9.36523Q120.025 9.59766 120.531 10.4248L121.14 11.4023Q121.618 12.1816 122.145 12.2227L122.145 12.4756L119.684 12.4756L117.783 9.36523L117.373 9.36523L117.373 11.1426Q117.373 11.7441 117.517 11.9731Q117.66 12.2021 117.995 12.2227L117.995 12.4756L114.741 12.4756L114.741 12.2227Q115.063 12.2158 115.261 12.0518Q115.459 11.8877 115.459 11.2178L115.459 7.44434Q115.459 6.80859 115.305 6.57275Q115.151 6.33691 114.741 6.33691L114.741 6.08398ZM125.624 5.89258Q126.458 5.89258 127.176 6.32324Q127.894 6.75391 128.266 7.54688Q128.639 8.33984 128.639 9.2832Q128.639 10.6436 127.948 11.5596Q127.114 12.667 125.645 12.667Q124.202 12.667 123.423 11.6553Q122.644 10.6436 122.644 9.31055Q122.644 7.93652 123.44 6.91455Q124.236 5.89258 125.624 5.89258ZM125.651 6.37793Q125.303 6.37793 125.053 6.64111Q124.804 6.9043 124.725 7.68018Q124.646 8.45605 124.646 9.83691Q124.646 10.5684 124.742 11.2041Q124.817 11.6895 125.063 11.9424Q125.31 12.1953 125.624 12.1953Q125.932 12.1953 126.137 12.0244Q126.403 11.792 126.492 11.375Q126.629 10.7256 126.629 8.75Q126.629 7.58789 126.499 7.15381Q126.369 6.71973 126.116 6.52148Q125.938 6.37793 125.651 6.37793ZM133.219 5.09277Q132.125 5.09277 131.458 4.75098Q130.792 4.40918 130.792 3.82813Q130.792 3.52051 130.97 3.34277Q131.147 3.16504 131.394 3.16504Q131.934 3.16504 132.193 4.0127Q132.31 4.39551 132.511 4.5459Q132.713 4.69629 133.13 4.69629Q133.69 4.69629 133.848 4.5459Q134.005 4.39551 134.114 4.04688Q134.395 3.16504 134.935 3.16504Q135.188 3.16504 135.365 3.33936Q135.543 3.51367 135.543 3.82813Q135.543 4.40918 134.921 4.75098Q134.299 5.09277 133.219 5.09277ZM133.465 12.4756L133.465 12.2227Q134.08 12.2227 134.08 11.3066L134.08 8.17578L132.248 11.3066Q132.255 12.2021 132.87 12.2227L132.87 12.4756L129.616 12.4756L129.616 12.2227Q130.006 12.2227 130.17 12.0039Q130.334 11.7852 130.334 11.2383L130.334 7.29395Q130.334 6.33691 129.616 6.33691L129.616 6.08398L132.87 6.08398L132.87 6.33691Q132.515 6.35059 132.381 6.54199Q132.248 6.7334 132.248 7.29395L132.248 10.4111L134.08 7.23926Q134.073 6.7334 133.93 6.53516Q133.786 6.33691 133.465 6.33691L133.465 6.08398L136.719 6.08398L136.719 6.33691Q136.35 6.34375 136.172 6.52148Q135.994 6.69922 135.994 7.20508L135.994 11.2725Q135.994 11.8398 136.155 12.0313Q136.315 12.2227 136.719 12.2227L136.719 12.4756L133.465 12.4756Z" />
      </g>
      <g transform="translate(0, 19.126953)" id="государственной-гимназии">
        <path d="M0.492188 12.2227Q0.888672 12.1953 1.0459 12.0142Q1.20313 11.833 1.20313 11.293L1.20313 7.23242Q1.20313 6.74707 1.05615 6.55908Q0.90918 6.37109 0.492188 6.33691L0.492188 6.08398L6.11133 6.08398L6.11133 7.75195L5.8584 7.75195Q5.70117 6.97266 5.42773 6.74365Q5.1543 6.51465 4.38184 6.51465L3.11719 6.51465L3.11719 11.334Q3.11719 11.8125 3.27441 12.0107Q3.43164 12.209 3.91016 12.2227L3.91016 12.4756L0.492188 12.4756L0.492188 12.2227ZM9.49512 5.89258Q10.3291 5.89258 11.0469 6.32324Q11.7646 6.75391 12.1372 7.54688Q12.5098 8.33984 12.5098 9.2832Q12.5098 10.6436 11.8193 11.5596Q10.9854 12.667 9.51563 12.667Q8.07324 12.667 7.29395 11.6553Q6.51465 10.6436 6.51465 9.31055Q6.51465 7.93652 7.31104 6.91455Q8.10742 5.89258 9.49512 5.89258ZM9.52246 6.37793Q9.17383 6.37793 8.92432 6.64111Q8.6748 6.9043 8.59619 7.68018Q8.51758 8.45605 8.51758 9.83691Q8.51758 10.5684 8.61328 11.2041Q8.68848 11.6895 8.93457 11.9424Q9.18066 12.1953 9.49512 12.1953Q9.80273 12.1953 10.0078 12.0244Q10.2744 11.792 10.3633 11.375Q10.5 10.7256 10.5 8.75Q10.5 7.58789 10.3701 7.15381Q10.2402 6.71973 9.9873 6.52148Q9.80957 6.37793 9.52246 6.37793ZM18.6963 10.8281L18.9082 10.9922Q18.457 11.8398 17.7837 12.2534Q17.1104 12.667 16.3516 12.667Q15.0732 12.667 14.3076 11.7031Q13.542 10.7393 13.542 9.38574Q13.542 8.08008 14.2393 7.08887Q15.0801 5.89258 16.5566 5.89258Q17.5479 5.89258 18.1323 6.3916Q18.7168 6.89063 18.7168 7.50586Q18.7168 7.89551 18.481 8.12793Q18.2451 8.36035 17.8623 8.36035Q17.459 8.36035 17.1958 8.09375Q16.9326 7.82715 16.8711 7.14355Q16.8301 6.71289 16.6729 6.54199Q16.5156 6.37109 16.3037 6.37109Q15.9756 6.37109 15.7432 6.71973Q15.3877 7.24609 15.3877 8.33301Q15.3877 9.23535 15.6748 10.0591Q15.9619 10.8828 16.4609 11.2861Q16.8369 11.5801 17.3496 11.5801Q17.6846 11.5801 17.9854 11.4229Q18.2861 11.2656 18.6963 10.8281ZM22.4424 12.7354L20.3779 7.99805Q19.9131 6.92481 19.6909 6.67871Q19.4688 6.43262 19.1543 6.33691L19.1543 6.08398L22.5518 6.08398L22.5518 6.33691Q22.2168 6.35059 22.0801 6.4668Q21.9434 6.58301 21.9434 6.74707Q21.9434 7.00684 22.2852 7.77246L23.3789 10.2744L24.124 8.33984Q24.5273 7.30762 24.5273 6.9043Q24.5273 6.65137 24.3599 6.50098Q24.1924 6.35059 23.7686 6.33691L23.7686 6.08398L25.9082 6.08398L25.9082 6.33691Q25.5938 6.37109 25.3955 6.57959Q25.1973 6.78809 24.7324 7.99805L22.9072 12.7354Q22.2168 14.5127 21.8818 14.9229Q21.4102 15.4971 20.6992 15.4971Q20.1318 15.4971 19.7798 15.1724Q19.4277 14.8477 19.4277 14.3896Q19.4277 13.9932 19.6704 13.7334Q19.9131 13.4736 20.2686 13.4736Q20.6104 13.4736 20.8188 13.6924Q21.0273 13.9111 21.0342 14.3691Q21.041 14.6289 21.0957 14.7041Q21.1504 14.7793 21.2529 14.7793Q21.417 14.7793 21.6016 14.5811Q21.875 14.2939 22.2441 13.2686L22.4424 12.7354ZM31.7393 6.08398L31.7393 6.33691Q31.2881 6.33691 31.1616 6.56934Q31.0352 6.80176 31.0352 7.18457L31.0352 11.3203Q31.0352 11.874 31.2026 12.0415Q31.3701 12.209 31.7393 12.2227L31.7393 14.1572L31.4863 14.1572Q31.3291 12.4756 29.3604 12.4756L27.5078 12.4756Q25.6074 12.4756 25.4092 14.1572L25.1563 14.1572L25.1563 12.2227Q26.0107 12.1543 26.4927 10.6777Q26.9746 9.20117 26.9746 7.52637Q26.9746 7.02051 26.8994 6.76416Q26.8242 6.50781 26.6841 6.42578Q26.5439 6.34375 26.1748 6.33691L26.1748 6.08398L31.7393 6.08398ZM29.1279 6.51465L27.4395 6.51465L27.4395 7.51953Q27.4395 10.4658 26.3594 12.0518L28.4648 12.0518Q29.1279 12.0518 29.1279 11.2383L29.1279 6.51465ZM36.2373 11.5322Q35.0684 12.5645 34.1387 12.5645Q33.5918 12.5645 33.2295 12.2056Q32.8672 11.8467 32.8672 11.3066Q32.8672 10.5752 33.4961 9.99072Q34.125 9.40625 36.2373 8.43555L36.2373 7.79297Q36.2373 7.06836 36.1587 6.88037Q36.0801 6.69238 35.8613 6.55225Q35.6426 6.41211 35.3691 6.41211Q34.9248 6.41211 34.6377 6.61035Q34.46 6.7334 34.46 6.89746Q34.46 7.04102 34.6514 7.25293Q34.9111 7.54688 34.9111 7.82031Q34.9111 8.15527 34.6616 8.39111Q34.4121 8.62695 34.0088 8.62695Q33.5781 8.62695 33.2876 8.36719Q32.9971 8.10742 32.9971 7.75879Q32.9971 7.2666 33.3867 6.81885Q33.7764 6.37109 34.4736 6.13184Q35.1709 5.89258 35.9229 5.89258Q36.832 5.89258 37.3618 6.27881Q37.8916 6.66504 38.0488 7.11621Q38.1445 7.40332 38.1445 8.43555L38.1445 10.917Q38.1445 11.3545 38.1787 11.4673Q38.2129 11.5801 38.2813 11.6348Q38.3496 11.6895 38.4385 11.6895Q38.6162 11.6895 38.8008 11.4365L39.0059 11.6006Q38.6641 12.1064 38.2983 12.3354Q37.9326 12.5645 37.4678 12.5645Q36.9209 12.5645 36.6133 12.3081Q36.3057 12.0518 36.2373 11.5322ZM36.2373 11.0332L36.2373 8.89355Q35.4102 9.37891 35.0068 9.93262Q34.7402 10.3018 34.7402 10.6777Q34.7402 10.9922 34.9658 11.2314Q35.1367 11.416 35.4443 11.416Q35.7861 11.416 36.2373 11.0332ZM42.1846 11.8262L42.1846 14.2051Q42.1846 14.6973 42.2632 14.875Q42.3418 15.0527 42.5059 15.1348Q42.6699 15.2168 43.1484 15.2168L43.1484 15.4697L39.5049 15.4697L39.5049 15.2168Q39.9287 15.2031 40.1338 14.9775Q40.2705 14.8203 40.2705 14.1641L40.2705 7.41699Q40.2705 6.74023 40.1133 6.55225Q39.9561 6.36426 39.5049 6.33691L39.5049 6.08398L42.1846 6.08398L42.1846 6.9248Q42.5195 6.43262 42.8682 6.21387Q43.3672 5.89258 43.9551 5.89258Q44.6592 5.89258 45.2368 6.33691Q45.8145 6.78125 46.1152 7.56396Q46.416 8.34668 46.416 9.24902Q46.416 10.2197 46.105 11.0229Q45.7939 11.8262 45.2026 12.2466Q44.6113 12.667 43.8867 12.667Q43.3604 12.667 42.9023 12.4346Q42.5605 12.2568 42.1846 11.8262ZM42.1846 11.1357Q42.7725 11.9697 43.4424 11.9697Q43.8115 11.9697 44.0508 11.5801Q44.4063 11.0059 44.4063 9.39258Q44.4063 7.73828 44.0166 7.12988Q43.7568 6.72656 43.3193 6.72656Q42.6289 6.72656 42.1846 7.72461L42.1846 11.1357ZM52.7119 10.8281L52.9238 10.9922Q52.4727 11.8398 51.7993 12.2534Q51.126 12.667 50.3672 12.667Q49.0889 12.667 48.3232 11.7031Q47.5576 10.7393 47.5576 9.38574Q47.5576 8.08008 48.2549 7.08887Q49.0957 5.89258 50.5723 5.89258Q51.5635 5.89258 52.1479 6.3916Q52.7324 6.89063 52.7324 7.50586Q52.7324 7.89551 52.4966 8.12793Q52.2607 8.36035 51.8779 8.36035Q51.4746 8.36035 51.2114 8.09375Q50.9482 7.82715 50.8867 7.14355Q50.8457 6.71289 50.6885 6.54199Q50.5313 6.37109 50.3193 6.37109Q49.9912 6.37109 49.7588 6.71973Q49.4033 7.24609 49.4033 8.33301Q49.4033 9.23535 49.6904 10.0591Q49.9775 10.8828 50.4766 11.2861Q50.8525 11.5801 51.3652 11.5801Q51.7002 11.5801 52.001 11.4229Q52.3018 11.2656 52.7119 10.8281ZM55.002 12.4756L55.002 12.2227Q55.4121 12.2227 55.5659 12.0107Q55.7197 11.7988 55.7197 11.1699L55.7197 6.51465L55.084 6.51465Q54.4141 6.51465 54.1543 6.75391Q53.8945 6.99316 53.7441 7.75195L53.4912 7.75195L53.4912 6.08398L59.8623 6.08398L59.8623 7.75195L59.6094 7.75195Q59.4863 7.06836 59.2471 6.7915Q59.0078 6.51465 58.2832 6.51465L57.6338 6.51465L57.6338 11.1699Q57.6338 11.8193 57.7876 12.0176Q57.9414 12.2158 58.3516 12.2227L58.3516 12.4756L55.002 12.4756ZM60.6143 6.08398L64.1416 6.08398Q65.249 6.08398 65.9531 6.48389Q66.6572 6.88379 66.6572 7.66992Q66.6572 8.72949 65.1943 9.09863Q67.1699 9.33105 67.1699 10.7529Q67.1699 11.6143 66.3701 12.0449Q65.5703 12.4756 64.1758 12.4756L60.6143 12.4756L60.6143 12.2227Q61.0859 12.1748 61.1987 12.0039Q61.3115 11.833 61.3115 11.334L61.3115 7.52637Q61.3115 6.75391 61.1851 6.5625Q61.0586 6.37109 60.6143 6.33691L60.6143 6.08398ZM63.3213 8.93457Q64.9482 8.88672 64.9482 7.72461Q64.9482 6.53516 63.3213 6.51465L63.3213 8.93457ZM63.3213 9.36523L63.3213 11.4639Q63.3213 11.7852 63.4238 11.9185Q63.5264 12.0518 63.8682 12.0518Q64.4424 12.0518 64.8457 11.6484Q65.249 11.2451 65.249 10.623Q65.249 9.9668 64.8013 9.66602Q64.3535 9.36523 63.3213 9.36523ZM73.5615 9.05078L70.0547 9.05078Q70.1162 10.3223 70.7314 11.0605Q71.2031 11.6279 71.8662 11.6279Q72.2764 11.6279 72.6113 11.3989Q72.9463 11.1699 73.3291 10.5752L73.5615 10.7256Q73.042 11.7852 72.4131 12.2261Q71.7842 12.667 70.957 12.667Q69.5352 12.667 68.8037 11.5732Q68.2158 10.6914 68.2158 9.38574Q68.2158 7.78613 69.0806 6.83936Q69.9453 5.89258 71.1074 5.89258Q72.0781 5.89258 72.7925 6.68896Q73.5068 7.48535 73.5615 9.05078ZM71.8799 8.59277Q71.8799 7.49219 71.7603 7.08203Q71.6406 6.67188 71.3877 6.45996Q71.2441 6.33691 71.0049 6.33691Q70.6494 6.33691 70.4238 6.68555Q70.0205 7.29395 70.0205 8.35352L70.0205 8.59277L71.8799 8.59277ZM74.3682 12.4756L74.3682 12.2227Q74.7646 12.2227 74.9253 12.021Q75.0859 11.8193 75.0859 11.252L75.0859 7.32813Q75.0859 6.72656 74.9287 6.53174Q74.7715 6.33691 74.3682 6.33691L74.3682 6.08398L77.6221 6.08398L77.6221 6.33691Q77.2803 6.35059 77.1401 6.51465Q77 6.67871 77 7.25977L77 8.94824L78.832 8.94824L78.832 7.25977Q78.832 6.78125 78.7295 6.55908Q78.627 6.33691 78.2168 6.33691L78.2168 6.08398L81.4639 6.08398L81.4639 6.33691Q81.0674 6.33691 80.9067 6.53174Q80.7461 6.72656 80.7461 7.18457L80.7461 11.252Q80.7461 11.8535 80.9033 12.0313Q81.0605 12.209 81.4639 12.2227L81.4639 12.4756L78.2168 12.4756L78.2168 12.2227Q78.5586 12.2158 78.6953 12.062Q78.832 11.9082 78.832 11.2998L78.832 9.37891L77 9.37891L77 11.252Q77 11.8604 77.1401 12.0415Q77.2803 12.2227 77.6221 12.2227L77.6221 12.4756L74.3682 12.4756ZM82.4346 12.4756L82.4346 12.2227Q82.8311 12.2227 82.9917 12.021Q83.1523 11.8193 83.1523 11.252L83.1523 7.32813Q83.1523 6.72656 82.9951 6.53174Q82.8379 6.33691 82.4346 6.33691L82.4346 6.08398L85.6885 6.08398L85.6885 6.33691Q85.3467 6.35059 85.2065 6.51465Q85.0664 6.67871 85.0664 7.25977L85.0664 8.94824L86.8984 8.94824L86.8984 7.25977Q86.8984 6.78125 86.7959 6.55908Q86.6934 6.33691 86.2832 6.33691L86.2832 6.08398L89.5303 6.08398L89.5303 6.33691Q89.1338 6.33691 88.9731 6.53174Q88.8125 6.72656 88.8125 7.18457L88.8125 11.252Q88.8125 11.8535 88.9697 12.0313Q89.127 12.209 89.5303 12.2227L89.5303 12.4756L86.2832 12.4756L86.2832 12.2227Q86.625 12.2158 86.7617 12.062Q86.8984 11.9082 86.8984 11.2998L86.8984 9.37891L85.0664 9.37891L85.0664 11.252Q85.0664 11.8604 85.2065 12.0415Q85.3467 12.2227 85.6885 12.2227L85.6885 12.4756L82.4346 12.4756ZM93.5088 5.89258Q94.3428 5.89258 95.0605 6.32324Q95.7783 6.75391 96.1509 7.54688Q96.5234 8.33984 96.5234 9.2832Q96.5234 10.6436 95.833 11.5596Q94.999 12.667 93.5293 12.667Q92.0869 12.667 91.3076 11.6553Q90.5283 10.6436 90.5283 9.31055Q90.5283 7.93652 91.3247 6.91455Q92.1211 5.89258 93.5088 5.89258ZM93.5361 6.37793Q93.1875 6.37793 92.938 6.64111Q92.6885 6.9043 92.6099 7.68018Q92.5313 8.45605 92.5313 9.83691Q92.5313 10.5684 92.627 11.2041Q92.7021 11.6895 92.9482 11.9424Q93.1943 12.1953 93.5088 12.1953Q93.8164 12.1953 94.0215 12.0244Q94.2881 11.792 94.377 11.375Q94.5137 10.7256 94.5137 8.75Q94.5137 7.58789 94.3838 7.15381Q94.2539 6.71973 94.001 6.52148Q93.8232 6.37793 93.5361 6.37793ZM101.104 5.09277Q100.01 5.09277 99.3433 4.75098Q98.6768 4.40918 98.6768 3.82813Q98.6768 3.52051 98.8545 3.34277Q99.0322 3.16504 99.2783 3.16504Q99.8184 3.16504 100.078 4.0127Q100.194 4.39551 100.396 4.5459Q100.598 4.69629 101.015 4.69629Q101.575 4.69629 101.732 4.5459Q101.89 4.39551 101.999 4.04688Q102.279 3.16504 102.819 3.16504Q103.072 3.16504 103.25 3.33936Q103.428 3.51367 103.428 3.82813Q103.428 4.40918 102.806 4.75098Q102.184 5.09277 101.104 5.09277ZM101.35 12.4756L101.35 12.2227Q101.965 12.2227 101.965 11.3066L101.965 8.17578L100.133 11.3066Q100.14 12.2021 100.755 12.2227L100.755 12.4756L97.501 12.4756L97.501 12.2227Q97.8906 12.2227 98.0547 12.0039Q98.2188 11.7852 98.2188 11.2383L98.2188 7.29395Q98.2188 6.33691 97.501 6.33691L97.501 6.08398L100.755 6.08398L100.755 6.33691Q100.399 6.35059 100.266 6.54199Q100.133 6.7334 100.133 7.29395L100.133 10.4111L101.965 7.23926Q101.958 6.7334 101.814 6.53516Q101.671 6.33691 101.35 6.33691L101.35 6.08398L104.604 6.08398L104.604 6.33691Q104.234 6.34375 104.057 6.52148Q103.879 6.69922 103.879 7.20508L103.879 11.2725Q103.879 11.8398 104.04 12.0313Q104.2 12.2227 104.604 12.2227L104.604 12.4756L101.35 12.4756ZM109.081 12.2227Q109.478 12.1953 109.635 12.0142Q109.792 11.833 109.792 11.293L109.792 7.23242Q109.792 6.74707 109.645 6.55908Q109.498 6.37109 109.081 6.33691L109.081 6.08398L114.7 6.08398L114.7 7.75195L114.447 7.75195Q114.29 6.97266 114.017 6.74365Q113.743 6.51465 112.971 6.51465L111.706 6.51465L111.706 11.334Q111.706 11.8125 111.863 12.0107Q112.021 12.209 112.499 12.2227L112.499 12.4756L109.081 12.4756L109.081 12.2227ZM119.273 12.4756L119.273 12.2227Q119.889 12.2227 119.889 11.3066L119.889 8.17578L118.057 11.3066Q118.063 12.2021 118.679 12.2227L118.679 12.4756L115.425 12.4756L115.425 12.2227Q115.814 12.2227 115.979 12.0039Q116.143 11.7852 116.143 11.2383L116.143 7.29395Q116.143 6.33691 115.425 6.33691L115.425 6.08398L118.679 6.08398L118.679 6.33691Q118.323 6.35059 118.19 6.54199Q118.057 6.7334 118.057 7.29395L118.057 10.4111L119.889 7.23926Q119.882 6.7334 119.738 6.53516Q119.595 6.33691 119.273 6.33691L119.273 6.08398L122.527 6.08398L122.527 6.33691Q122.158 6.34375 121.98 6.52148Q121.803 6.69922 121.803 7.20508L121.803 11.2725Q121.803 11.8398 121.963 12.0313Q122.124 12.2227 122.527 12.2227L122.527 12.4756L119.273 12.4756ZM123.512 6.08398L126.185 6.08398L127.805 10.0488L129.425 6.08398L132.029 6.08398L132.029 6.33691Q131.653 6.35742 131.496 6.55908Q131.339 6.76074 131.339 7.28027L131.339 11.252Q131.339 11.792 131.486 11.9971Q131.633 12.2021 132.029 12.2227L132.029 12.4756L128.659 12.4756L128.659 12.2227Q129.083 12.2158 129.254 11.9971Q129.425 11.7783 129.425 11.252L129.425 7.15723L127.196 12.4756L126.848 12.4756L124.688 7.23242L124.688 11.3613Q124.688 11.8057 124.838 12.0039Q124.988 12.2021 125.426 12.2227L125.426 12.4756L123.512 12.4756L123.512 12.2227Q123.895 12.209 124.055 12.0073Q124.216 11.8057 124.216 11.3135L124.216 7.23242Q124.216 6.76074 124.059 6.55908Q123.901 6.35742 123.512 6.33691L123.512 6.08398ZM133.027 12.4756L133.027 12.2227Q133.424 12.2227 133.584 12.021Q133.745 11.8193 133.745 11.252L133.745 7.32813Q133.745 6.72656 133.588 6.53174Q133.431 6.33691 133.027 6.33691L133.027 6.08398L136.281 6.08398L136.281 6.33691Q135.939 6.35059 135.799 6.51465Q135.659 6.67871 135.659 7.25977L135.659 8.94824L137.491 8.94824L137.491 7.25977Q137.491 6.78125 137.389 6.55908Q137.286 6.33691 136.876 6.33691L136.876 6.08398L140.123 6.08398L140.123 6.33691Q139.727 6.33691 139.566 6.53174Q139.405 6.72656 139.405 7.18457L139.405 11.252Q139.405 11.8535 139.563 12.0313Q139.72 12.209 140.123 12.2227L140.123 12.4756L136.876 12.4756L136.876 12.2227Q137.218 12.2158 137.354 12.062Q137.491 11.9082 137.491 11.2998L137.491 9.37891L135.659 9.37891L135.659 11.252Q135.659 11.8604 135.799 12.0415Q135.939 12.2227 136.281 12.2227L136.281 12.4756L133.027 12.4756ZM144.614 11.5322Q143.445 12.5645 142.516 12.5645Q141.969 12.5645 141.606 12.2056Q141.244 11.8467 141.244 11.3066Q141.244 10.5752 141.873 9.99072Q142.502 9.40625 144.614 8.43555L144.614 7.79297Q144.614 7.06836 144.536 6.88037Q144.457 6.69238 144.238 6.55225Q144.02 6.41211 143.746 6.41211Q143.302 6.41211 143.015 6.61035Q142.837 6.7334 142.837 6.89746Q142.837 7.04102 143.028 7.25293Q143.288 7.54688 143.288 7.82031Q143.288 8.15527 143.039 8.39111Q142.789 8.62695 142.386 8.62695Q141.955 8.62695 141.665 8.36719Q141.374 8.10742 141.374 7.75879Q141.374 7.2666 141.764 6.81885Q142.153 6.37109 142.851 6.13184Q143.548 5.89258 144.3 5.89258Q145.209 5.89258 145.739 6.27881Q146.269 6.66504 146.426 7.11621Q146.521 7.40332 146.521 8.43555L146.521 10.917Q146.521 11.3545 146.556 11.4673Q146.59 11.5801 146.658 11.6348Q146.727 11.6895 146.815 11.6895Q146.993 11.6895 147.178 11.4365L147.383 11.6006Q147.041 12.1064 146.675 12.3354Q146.31 12.5645 145.845 12.5645Q145.298 12.5645 144.99 12.3081Q144.683 12.0518 144.614 11.5322ZM144.614 11.0332L144.614 8.89355Q143.787 9.37891 143.384 9.93262Q143.117 10.3018 143.117 10.6777Q143.117 10.9922 143.343 11.2314Q143.514 11.416 143.821 11.416Q144.163 11.416 144.614 11.0332ZM151.026 9.03711Q152.216 9.33789 152.537 9.80615Q152.858 10.2744 152.858 10.7871Q152.858 11.5801 152.188 12.1235Q151.519 12.667 150.268 12.667Q148.559 12.667 147.8 11.3408L148.012 11.2178Q148.798 11.9902 149.611 11.9902Q150.22 11.9902 150.582 11.6177Q150.944 11.2451 150.944 10.6162Q150.944 9.42676 149.529 9.34473L149.529 8.91406Q150.767 8.91406 150.767 7.64941Q150.767 7.06152 150.483 6.71973Q150.199 6.37793 149.714 6.37793Q148.682 6.37793 148.395 7.88867L148.135 7.88867L148.23 5.89258L148.49 5.89258Q148.606 6.16602 148.777 6.16602Q148.846 6.16602 149.112 6.09766Q149.857 5.89258 150.411 5.89258Q151.348 5.89258 151.939 6.32324Q152.53 6.75391 152.53 7.48535Q152.53 8.6543 151.026 9.03711ZM157.568 12.4756L157.568 12.2227Q158.184 12.2227 158.184 11.3066L158.184 8.17578L156.352 11.3066Q156.358 12.2021 156.974 12.2227L156.974 12.4756L153.72 12.4756L153.72 12.2227Q154.109 12.2227 154.273 12.0039Q154.438 11.7852 154.438 11.2383L154.438 7.29395Q154.438 6.33691 153.72 6.33691L153.72 6.08398L156.974 6.08398L156.974 6.33691Q156.618 6.35059 156.485 6.54199Q156.352 6.7334 156.352 7.29395L156.352 10.4111L158.184 7.23926Q158.177 6.7334 158.033 6.53516Q157.89 6.33691 157.568 6.33691L157.568 6.08398L160.822 6.08398L160.822 6.33691Q160.453 6.34375 160.275 6.52148Q160.098 6.69922 160.098 7.20508L160.098 11.2725Q160.098 11.8398 160.258 12.0313Q160.419 12.2227 160.822 12.2227L160.822 12.4756L157.568 12.4756ZM165.635 12.4756L165.635 12.2227Q166.25 12.2227 166.25 11.3066L166.25 8.17578L164.418 11.3066Q164.425 12.2021 165.04 12.2227L165.04 12.4756L161.786 12.4756L161.786 12.2227Q162.176 12.2227 162.34 12.0039Q162.504 11.7852 162.504 11.2383L162.504 7.29395Q162.504 6.33691 161.786 6.33691L161.786 6.08398L165.04 6.08398L165.04 6.33691Q164.685 6.35059 164.551 6.54199Q164.418 6.7334 164.418 7.29395L164.418 10.4111L166.25 7.23926Q166.243 6.7334 166.1 6.53516Q165.956 6.33691 165.635 6.33691L165.635 6.08398L168.889 6.08398L168.889 6.33691Q168.52 6.34375 168.342 6.52148Q168.164 6.69922 168.164 7.20508L168.164 11.2725Q168.164 11.8398 168.325 12.0313Q168.485 12.2227 168.889 12.2227L168.889 12.4756L165.635 12.4756Z" />
      </g>
      <g transform="translate(0, 35.225586)" id="Система-управления-содержимым-">
        <path d="M9.34473 2.99414L9.34473 6.20703L9.07813 6.20703Q8.77734 4.94922 7.95703 4.2793Q7.13672 3.60938 6.09766 3.60938Q5.22949 3.60938 4.50488 4.1084Q3.78027 4.60742 3.44531 5.41406Q3.01465 6.44629 3.01465 7.71094Q3.01465 8.95508 3.3291 9.97705Q3.64355 10.999 4.31348 11.522Q4.9834 12.0449 6.0498 12.0449Q6.9248 12.0449 7.65283 11.6621Q8.38086 11.2793 9.1875 10.3428L9.1875 11.1426Q8.4082 11.9561 7.56396 12.3218Q6.71973 12.6875 5.5918 12.6875Q4.1084 12.6875 2.95654 12.0928Q1.80469 11.498 1.1792 10.3838Q0.553711 9.26953 0.553711 8.01172Q0.553711 6.68555 1.24756 5.49609Q1.94141 4.30664 3.12061 3.65039Q4.2998 2.99414 5.62598 2.99414Q6.60351 2.99414 7.69043 3.41797Q8.31933 3.66406 8.49023 3.66406Q8.70898 3.66406 8.86963 3.50342Q9.03027 3.34277 9.07813 2.99414L9.34473 2.99414ZM14.4375 12.4756L14.4375 12.2227Q15.0527 12.2227 15.0527 11.3066L15.0527 8.17578L13.2207 11.3066Q13.2275 12.2021 13.8428 12.2227L13.8428 12.4756L10.5889 12.4756L10.5889 12.2227Q10.9785 12.2227 11.1426 12.0039Q11.3066 11.7852 11.3066 11.2383L11.3066 7.29395Q11.3066 6.33691 10.5889 6.33691L10.5889 6.08398L13.8428 6.08398L13.8428 6.33691Q13.4873 6.35059 13.354 6.54199Q13.2207 6.7334 13.2207 7.29395L13.2207 10.4111L15.0527 7.23926Q15.0459 6.7334 14.9023 6.53516Q14.7588 6.33691 14.4375 6.33691L14.4375 6.08398L17.6914 6.08398L17.6914 6.33691Q17.3223 6.34375 17.1445 6.52148Q16.9668 6.69922 16.9668 7.20508L16.9668 11.2725Q16.9668 11.8398 17.1274 12.0313Q17.2881 12.2227 17.6914 12.2227L17.6914 12.4756L14.4375 12.4756ZM23.8643 10.8281L24.0762 10.9922Q23.625 11.8398 22.9517 12.2534Q22.2783 12.667 21.5195 12.667Q20.2412 12.667 19.4756 11.7031Q18.71 10.7393 18.71 9.38574Q18.71 8.08008 19.4072 7.08887Q20.248 5.89258 21.7246 5.89258Q22.7158 5.89258 23.3003 6.3916Q23.8848 6.89063 23.8848 7.50586Q23.8848 7.89551 23.6489 8.12793Q23.4131 8.36035 23.0303 8.36035Q22.627 8.36035 22.3638 8.09375Q22.1006 7.82715 22.0391 7.14355Q21.998 6.71289 21.8408 6.54199Q21.6836 6.37109 21.4717 6.37109Q21.1436 6.37109 20.9111 6.71973Q20.5557 7.24609 20.5557 8.33301Q20.5557 9.23535 20.8428 10.0591Q21.1299 10.8828 21.6289 11.2861Q22.0049 11.5801 22.5176 11.5801Q22.8525 11.5801 23.1533 11.4229Q23.4541 11.2656 23.8643 10.8281ZM26.1543 12.4756L26.1543 12.2227Q26.5645 12.2227 26.7183 12.0107Q26.8721 11.7988 26.8721 11.1699L26.8721 6.51465L26.2363 6.51465Q25.5664 6.51465 25.3066 6.75391Q25.0469 6.99316 24.8965 7.75195L24.6436 7.75195L24.6436 6.08398L31.0146 6.08398L31.0146 7.75195L30.7617 7.75195Q30.6387 7.06836 30.3994 6.7915Q30.1602 6.51465 29.4355 6.51465L28.7861 6.51465L28.7861 11.1699Q28.7861 11.8193 28.9399 12.0176Q29.0938 12.2158 29.5039 12.2227L29.5039 12.4756L26.1543 12.4756ZM37.1533 9.05078L33.6465 9.05078Q33.708 10.3223 34.3232 11.0605Q34.7949 11.6279 35.458 11.6279Q35.8682 11.6279 36.2031 11.3989Q36.5381 11.1699 36.9209 10.5752L37.1533 10.7256Q36.6338 11.7852 36.0049 12.2261Q35.376 12.667 34.5488 12.667Q33.127 12.667 32.3955 11.5732Q31.8076 10.6914 31.8076 9.38574Q31.8076 7.78613 32.6724 6.83936Q33.5371 5.89258 34.6992 5.89258Q35.6699 5.89258 36.3843 6.68896Q37.0986 7.48535 37.1533 9.05078ZM35.4717 8.59277Q35.4717 7.49219 35.3521 7.08203Q35.2324 6.67188 34.9795 6.45996Q34.8359 6.33691 34.5967 6.33691Q34.2412 6.33691 34.0156 6.68555Q33.6123 7.29395 33.6123 8.35352L33.6123 8.59277L35.4717 8.59277ZM37.9805 6.08398L40.6533 6.08398L42.2734 10.0488L43.8936 6.08398L46.498 6.08398L46.498 6.33691Q46.1221 6.35742 45.9648 6.55908Q45.8076 6.76074 45.8076 7.28027L45.8076 11.252Q45.8076 11.792 45.9546 11.9971Q46.1016 12.2021 46.498 12.2227L46.498 12.4756L43.1279 12.4756L43.1279 12.2227Q43.5518 12.2158 43.7227 11.9971Q43.8936 11.7783 43.8936 11.252L43.8936 7.15723L41.665 12.4756L41.3164 12.4756L39.1563 7.23242L39.1563 11.3613Q39.1563 11.8057 39.3066 12.0039Q39.457 12.2021 39.8945 12.2227L39.8945 12.4756L37.9805 12.4756L37.9805 12.2227Q38.3633 12.209 38.5239 12.0073Q38.6846 11.8057 38.6846 11.3135L38.6846 7.23242Q38.6846 6.76074 38.5273 6.55908Q38.3701 6.35742 37.9805 6.33691L37.9805 6.08398ZM50.9209 11.5322Q49.752 12.5645 48.8223 12.5645Q48.2754 12.5645 47.9131 12.2056Q47.5508 11.8467 47.5508 11.3066Q47.5508 10.5752 48.1797 9.99072Q48.8086 9.40625 50.9209 8.43555L50.9209 7.79297Q50.9209 7.06836 50.8423 6.88037Q50.7637 6.69238 50.5449 6.55225Q50.3262 6.41211 50.0527 6.41211Q49.6084 6.41211 49.3213 6.61035Q49.1436 6.7334 49.1436 6.89746Q49.1436 7.04102 49.335 7.25293Q49.5947 7.54688 49.5947 7.82031Q49.5947 8.15527 49.3452 8.39111Q49.0957 8.62695 48.6924 8.62695Q48.2617 8.62695 47.9712 8.36719Q47.6807 8.10742 47.6807 7.75879Q47.6807 7.2666 48.0703 6.81885Q48.46 6.37109 49.1572 6.13184Q49.8545 5.89258 50.6064 5.89258Q51.5156 5.89258 52.0454 6.27881Q52.5752 6.66504 52.7324 7.11621Q52.8281 7.40332 52.8281 8.43555L52.8281 10.917Q52.8281 11.3545 52.8623 11.4673Q52.8965 11.5801 52.9648 11.6348Q53.0332 11.6895 53.1221 11.6895Q53.2998 11.6895 53.4844 11.4365L53.6895 11.6006Q53.3477 12.1064 52.9819 12.3354Q52.6162 12.5645 52.1514 12.5645Q51.6045 12.5645 51.2969 12.3081Q50.9893 12.0518 50.9209 11.5322ZM50.9209 11.0332L50.9209 8.89355Q50.0938 9.37891 49.6904 9.93262Q49.4238 10.3018 49.4238 10.6777Q49.4238 10.9922 49.6494 11.2314Q49.8203 11.416 50.1279 11.416Q50.4697 11.416 50.9209 11.0332ZM60.8262 12.7354L58.7617 7.99805Q58.2969 6.92481 58.0747 6.67871Q57.8525 6.43262 57.5381 6.33691L57.5381 6.08398L60.9355 6.08398L60.9355 6.33691Q60.6006 6.35059 60.4639 6.4668Q60.3271 6.58301 60.3271 6.74707Q60.3271 7.00684 60.6689 7.77246L61.7627 10.2744L62.5078 8.33984Q62.9111 7.30762 62.9111 6.9043Q62.9111 6.65137 62.7437 6.50098Q62.5762 6.35059 62.1523 6.33691L62.1523 6.08398L64.292 6.08398L64.292 6.33691Q63.9775 6.37109 63.7793 6.57959Q63.5811 6.78809 63.1162 7.99805L61.291 12.7354Q60.6006 14.5127 60.2656 14.9229Q59.7939 15.4971 59.083 15.4971Q58.5156 15.4971 58.1636 15.1724Q57.8115 14.8477 57.8115 14.3896Q57.8115 13.9932 58.0542 13.7334Q58.2969 13.4736 58.6523 13.4736Q58.9941 13.4736 59.2026 13.6924Q59.4111 13.9111 59.418 14.3691Q59.4248 14.6289 59.4795 14.7041Q59.5342 14.7793 59.6367 14.7793Q59.8008 14.7793 59.9854 14.5811Q60.2588 14.2939 60.6279 13.2686L60.8262 12.7354ZM72.0029 6.08398L72.0029 6.33691Q71.5518 6.38477 71.415 6.57959Q71.2783 6.77442 71.2783 7.40332L71.2783 11.2109Q71.2783 11.8125 71.4287 12.0107Q71.5791 12.209 72.0029 12.2227L72.0029 12.4756L68.749 12.4756L68.749 12.2227Q69.1729 12.2227 69.2686 11.9971Q69.3643 11.7715 69.3643 11.2588L69.3643 6.51465L67.5322 6.51465L67.5322 11.2109Q67.5322 11.8398 67.6553 12.0313Q67.7783 12.2227 68.1543 12.2227L68.1543 12.4756L64.9004 12.4756L64.9004 12.2227Q65.3174 12.2158 65.4678 12.0107Q65.6182 11.8057 65.6182 11.1357L65.6182 7.31445Q65.6182 6.68555 65.4507 6.51123Q65.2832 6.33691 64.9004 6.33691L64.9004 6.08398L72.0029 6.08398ZM75.4346 11.8262L75.4346 14.2051Q75.4346 14.6973 75.5132 14.875Q75.5918 15.0527 75.7559 15.1348Q75.9199 15.2168 76.3984 15.2168L76.3984 15.4697L72.7549 15.4697L72.7549 15.2168Q73.1787 15.2031 73.3838 14.9775Q73.5205 14.8203 73.5205 14.1641L73.5205 7.41699Q73.5205 6.74023 73.3633 6.55225Q73.2061 6.36426 72.7549 6.33691L72.7549 6.08398L75.4346 6.08398L75.4346 6.9248Q75.7695 6.43262 76.1182 6.21387Q76.6172 5.89258 77.2051 5.89258Q77.9092 5.89258 78.4868 6.33691Q79.0645 6.78125 79.3652 7.56396Q79.666 8.34668 79.666 9.24902Q79.666 10.2197 79.355 11.0229Q79.0439 11.8262 78.4526 12.2466Q77.8613 12.667 77.1367 12.667Q76.6104 12.667 76.1523 12.4346Q75.8105 12.2568 75.4346 11.8262ZM75.4346 11.1357Q76.0225 11.9697 76.6924 11.9697Q77.0615 11.9697 77.3008 11.5801Q77.6563 11.0059 77.6563 9.39258Q77.6563 7.73828 77.2666 7.12988Q77.0068 6.72656 76.5693 6.72656Q75.8789 6.72656 75.4346 7.72461L75.4346 11.1357ZM84.2734 11.5322Q83.1045 12.5645 82.1748 12.5645Q81.6279 12.5645 81.2656 12.2056Q80.9033 11.8467 80.9033 11.3066Q80.9033 10.5752 81.5322 9.99072Q82.1611 9.40625 84.2734 8.43555L84.2734 7.79297Q84.2734 7.06836 84.1948 6.88037Q84.1162 6.69238 83.8975 6.55225Q83.6787 6.41211 83.4053 6.41211Q82.9609 6.41211 82.6738 6.61035Q82.4961 6.7334 82.4961 6.89746Q82.4961 7.04102 82.6875 7.25293Q82.9473 7.54688 82.9473 7.82031Q82.9473 8.15527 82.6978 8.39111Q82.4482 8.62695 82.0449 8.62695Q81.6143 8.62695 81.3237 8.36719Q81.0332 8.10742 81.0332 7.75879Q81.0332 7.2666 81.4229 6.81885Q81.8125 6.37109 82.5098 6.13184Q83.207 5.89258 83.959 5.89258Q84.8682 5.89258 85.3979 6.27881Q85.9277 6.66504 86.085 7.11621Q86.1807 7.40332 86.1807 8.43555L86.1807 10.917Q86.1807 11.3545 86.2148 11.4673Q86.249 11.5801 86.3174 11.6348Q86.3857 11.6895 86.4746 11.6895Q86.6523 11.6895 86.8369 11.4365L87.042 11.6006Q86.7002 12.1064 86.3345 12.3354Q85.9688 12.5645 85.5039 12.5645Q84.957 12.5645 84.6494 12.3081Q84.3418 12.0518 84.2734 11.5322ZM84.2734 11.0332L84.2734 8.89355Q83.4463 9.37891 83.043 9.93262Q82.7764 10.3018 82.7764 10.6777Q82.7764 10.9922 83.002 11.2314Q83.1729 11.416 83.4805 11.416Q83.8223 11.416 84.2734 11.0332ZM87.7734 6.08398L91.3008 6.08398Q92.4082 6.08398 93.1123 6.48389Q93.8164 6.88379 93.8164 7.66992Q93.8164 8.72949 92.3535 9.09863Q94.3291 9.33105 94.3291 10.7529Q94.3291 11.6143 93.5293 12.0449Q92.7295 12.4756 91.335 12.4756L87.7734 12.4756L87.7734 12.2227Q88.2451 12.1748 88.3579 12.0039Q88.4707 11.833 88.4707 11.334L88.4707 7.52637Q88.4707 6.75391 88.3442 6.5625Q88.2178 6.37109 87.7734 6.33691L87.7734 6.08398ZM90.4805 8.93457Q92.1074 8.88672 92.1074 7.72461Q92.1074 6.53516 90.4805 6.51465L90.4805 8.93457ZM90.4805 9.36523L90.4805 11.4639Q90.4805 11.7852 90.583 11.9185Q90.6855 12.0518 91.0273 12.0518Q91.6016 12.0518 92.0049 11.6484Q92.4082 11.2451 92.4082 10.623Q92.4082 9.9668 91.9604 9.66602Q91.5127 9.36523 90.4805 9.36523ZM98.6084 12.4756L98.6084 12.2227Q98.9502 12.2158 99.1724 12.0552Q99.3945 11.8945 99.3945 11.334L99.3945 6.51465L97.5898 6.51465L97.5898 9.31055Q97.5898 10.8213 97.4395 11.3955Q97.2891 11.9697 96.8584 12.2773Q96.4277 12.585 95.9424 12.585Q95.3955 12.585 95.064 12.2534Q94.7324 11.9219 94.7324 11.4912Q94.7324 11.0742 94.9751 10.811Q95.2178 10.5479 95.6006 10.5479Q96.332 10.5479 96.332 11.4365Q96.332 11.8398 96.4893 11.8398Q96.79 11.8398 96.9541 11.3408Q97.1182 10.8418 97.1182 9.31055L97.1182 7.45117Q97.1182 6.82227 96.9473 6.58984Q96.7764 6.35742 96.3594 6.33691L96.3594 6.08398L101.992 6.08398L101.992 6.33691Q101.309 6.35059 101.309 7.19824L101.309 11.3066Q101.309 11.7783 101.452 11.9937Q101.596 12.209 101.992 12.2227L101.992 12.4756L98.6084 12.4756ZM108.391 9.05078L104.884 9.05078Q104.945 10.3223 105.561 11.0605Q106.032 11.6279 106.695 11.6279Q107.105 11.6279 107.44 11.3989Q107.775 11.1699 108.158 10.5752L108.391 10.7256Q107.871 11.7852 107.242 12.2261Q106.613 12.667 105.786 12.667Q104.364 12.667 103.633 11.5732Q103.045 10.6914 103.045 9.38574Q103.045 7.78613 103.91 6.83936Q104.774 5.89258 105.937 5.89258Q106.907 5.89258 107.622 6.68896Q108.336 7.48535 108.391 9.05078ZM106.709 8.59277Q106.709 7.49219 106.589 7.08203Q106.47 6.67188 106.217 6.45996Q106.073 6.33691 105.834 6.33691Q105.479 6.33691 105.253 6.68555Q104.85 7.29395 104.85 8.35352L104.85 8.59277L106.709 8.59277ZM109.197 12.4756L109.197 12.2227Q109.594 12.2227 109.754 12.021Q109.915 11.8193 109.915 11.252L109.915 7.32813Q109.915 6.72656 109.758 6.53174Q109.601 6.33691 109.197 6.33691L109.197 6.08398L112.451 6.08398L112.451 6.33691Q112.109 6.35059 111.969 6.51465Q111.829 6.67871 111.829 7.25977L111.829 8.94824L113.661 8.94824L113.661 7.25977Q113.661 6.78125 113.559 6.55908Q113.456 6.33691 113.046 6.33691L113.046 6.08398L116.293 6.08398L116.293 6.33691Q115.896 6.33691 115.736 6.53174Q115.575 6.72656 115.575 7.18457L115.575 11.252Q115.575 11.8535 115.732 12.0313Q115.89 12.209 116.293 12.2227L116.293 12.4756L113.046 12.4756L113.046 12.2227Q113.388 12.2158 113.524 12.062Q113.661 11.9082 113.661 11.2998L113.661 9.37891L111.829 9.37891L111.829 11.252Q111.829 11.8604 111.969 12.0415Q112.109 12.2227 112.451 12.2227L112.451 12.4756L109.197 12.4756ZM121.112 12.4756L121.112 12.2227Q121.728 12.2227 121.728 11.3066L121.728 8.17578L119.896 11.3066Q119.902 12.2021 120.518 12.2227L120.518 12.4756L117.264 12.4756L117.264 12.2227Q117.653 12.2227 117.817 12.0039Q117.981 11.7852 117.981 11.2383L117.981 7.29395Q117.981 6.33691 117.264 6.33691L117.264 6.08398L120.518 6.08398L120.518 6.33691Q120.162 6.35059 120.029 6.54199Q119.896 6.7334 119.896 7.29395L119.896 10.4111L121.728 7.23926Q121.721 6.7334 121.577 6.53516Q121.434 6.33691 121.112 6.33691L121.112 6.08398L124.366 6.08398L124.366 6.33691Q123.997 6.34375 123.819 6.52148Q123.642 6.69922 123.642 7.20508L123.642 11.2725Q123.642 11.8398 123.802 12.0313Q123.963 12.2227 124.366 12.2227L124.366 12.4756L121.112 12.4756ZM131.893 6.08398L131.893 6.33691Q131.571 6.33691 131.397 6.50781Q131.223 6.67871 131.223 7.32813L131.223 10.9717Q131.223 11.6826 131.373 11.939Q131.523 12.1953 131.893 12.2227L131.893 12.4756L128.632 12.4756L128.632 12.2227Q129.309 12.1885 129.309 11.0742L129.309 9.59082Q129.063 9.60449 129.028 9.60449Q128.926 9.60449 128.707 9.59082L127.62 12.4756L125.091 12.4756L125.091 12.2227Q125.836 12.2158 126.15 11.375L126.889 9.38574Q125.439 8.93457 125.439 7.75879Q125.439 7.15723 125.822 6.7334Q126.205 6.30957 126.721 6.19678Q127.237 6.08398 128.55 6.08398L131.893 6.08398ZM129.309 6.61035Q128.905 6.51465 128.632 6.51465Q128.051 6.51465 127.753 6.8667Q127.456 7.21875 127.456 7.75195Q127.456 8.4082 127.866 8.79443Q128.276 9.18066 129.09 9.18066Q129.165 9.18066 129.309 9.17383L129.309 6.61035ZM141.613 10.8281L141.825 10.9922Q141.374 11.8398 140.701 12.2534Q140.027 12.667 139.269 12.667Q137.99 12.667 137.225 11.7031Q136.459 10.7393 136.459 9.38574Q136.459 8.08008 137.156 7.08887Q137.997 5.89258 139.474 5.89258Q140.465 5.89258 141.049 6.3916Q141.634 6.89063 141.634 7.50586Q141.634 7.89551 141.398 8.12793Q141.162 8.36035 140.779 8.36035Q140.376 8.36035 140.113 8.09375Q139.85 7.82715 139.788 7.14355Q139.747 6.71289 139.59 6.54199Q139.433 6.37109 139.221 6.37109Q138.893 6.37109 138.66 6.71973Q138.305 7.24609 138.305 8.33301Q138.305 9.23535 138.592 10.0591Q138.879 10.8828 139.378 11.2861Q139.754 11.5801 140.267 11.5801Q140.602 11.5801 140.902 11.4229Q141.203 11.2656 141.613 10.8281ZM145.626 5.89258Q146.46 5.89258 147.178 6.32324Q147.896 6.75391 148.268 7.54688Q148.641 8.33984 148.641 9.2832Q148.641 10.6436 147.95 11.5596Q147.116 12.667 145.646 12.667Q144.204 12.667 143.425 11.6553Q142.646 10.6436 142.646 9.31055Q142.646 7.93652 143.442 6.91455Q144.238 5.89258 145.626 5.89258ZM145.653 6.37793Q145.305 6.37793 145.055 6.64111Q144.806 6.9043 144.727 7.68018Q144.648 8.45605 144.648 9.83691Q144.648 10.5684 144.744 11.2041Q144.819 11.6895 145.065 11.9424Q145.312 12.1953 145.626 12.1953Q145.934 12.1953 146.139 12.0244Q146.405 11.792 146.494 11.375Q146.631 10.7256 146.631 8.75Q146.631 7.58789 146.501 7.15381Q146.371 6.71973 146.118 6.52148Q145.94 6.37793 145.653 6.37793ZM155.319 6.08398L155.319 6.33691Q154.868 6.33691 154.742 6.56934Q154.615 6.80176 154.615 7.18457L154.615 11.3203Q154.615 11.874 154.783 12.0415Q154.95 12.209 155.319 12.2227L155.319 14.1572L155.066 14.1572Q154.909 12.4756 152.94 12.4756L151.088 12.4756Q149.188 12.4756 148.989 14.1572L148.736 14.1572L148.736 12.2227Q149.591 12.1543 150.073 10.6777Q150.555 9.20117 150.555 7.52637Q150.555 7.02051 150.479 6.76416Q150.404 6.50781 150.264 6.42578Q150.124 6.34375 149.755 6.33691L149.755 6.08398L155.319 6.08398ZM152.708 6.51465L151.02 6.51465L151.02 7.51953Q151.02 10.4658 149.939 12.0518L152.045 12.0518Q152.708 12.0518 152.708 11.2383L152.708 6.51465ZM161.704 9.05078L158.197 9.05078Q158.259 10.3223 158.874 11.0605Q159.346 11.6279 160.009 11.6279Q160.419 11.6279 160.754 11.3989Q161.089 11.1699 161.472 10.5752L161.704 10.7256Q161.185 11.7852 160.556 12.2261Q159.927 12.667 159.1 12.667Q157.678 12.667 156.946 11.5732Q156.358 10.6914 156.358 9.38574Q156.358 7.78613 157.223 6.83936Q158.088 5.89258 159.25 5.89258Q160.221 5.89258 160.935 6.68896Q161.649 7.48535 161.704 9.05078ZM160.022 8.59277Q160.022 7.49219 159.903 7.08203Q159.783 6.67188 159.53 6.45996Q159.387 6.33691 159.147 6.33691Q158.792 6.33691 158.566 6.68555Q158.163 7.29395 158.163 8.35352L158.163 8.59277L160.022 8.59277ZM164.979 11.8262L164.979 14.2051Q164.979 14.6973 165.057 14.875Q165.136 15.0527 165.3 15.1348Q165.464 15.2168 165.942 15.2168L165.942 15.4697L162.299 15.4697L162.299 15.2168Q162.723 15.2031 162.928 14.9775Q163.064 14.8203 163.064 14.1641L163.064 7.41699Q163.064 6.74023 162.907 6.55225Q162.75 6.36426 162.299 6.33691L162.299 6.08398L164.979 6.08398L164.979 6.9248Q165.313 6.43262 165.662 6.21387Q166.161 5.89258 166.749 5.89258Q167.453 5.89258 168.031 6.33691Q168.608 6.78125 168.909 7.56396Q169.21 8.34668 169.21 9.24902Q169.21 10.2197 168.899 11.0229Q168.588 11.8262 167.997 12.2466Q167.405 12.667 166.681 12.667Q166.154 12.667 165.696 12.4346Q165.354 12.2568 164.979 11.8262ZM164.979 11.1357Q165.566 11.9697 166.236 11.9697Q166.605 11.9697 166.845 11.5801Q167.2 11.0059 167.2 9.39258Q167.2 7.73828 166.811 7.12988Q166.551 6.72656 166.113 6.72656Q165.423 6.72656 164.979 7.72461L164.979 11.1357ZM173.243 12.4756L173.243 12.2227Q173.619 12.2158 173.78 12.0142Q173.94 11.8125 173.94 11.2725L173.94 9.36523Q173.688 9.36523 173.496 9.74805L172.143 12.4756L169.9 12.4756L169.9 12.2227Q170.174 12.2227 170.3 12.1372Q170.427 12.0518 170.591 11.7305L171.479 9.93262Q171.732 9.42676 172.006 9.25244Q172.279 9.07813 172.867 8.98926Q172.505 8.5791 172.197 7.58105Q172.026 7 171.924 6.83594Q171.821 6.67188 171.685 6.67188Q171.514 6.67188 171.486 7.10938Q171.452 7.57422 171.309 7.77246Q171.165 7.9707 170.83 7.9707Q170.55 7.9707 170.317 7.75537Q170.085 7.54004 170.085 7.06836Q170.085 6.63086 170.393 6.30273Q170.7 5.97461 171.22 5.97461Q171.719 5.97461 172.026 6.31641Q172.334 6.6582 172.594 7.43066Q172.929 8.42188 173.158 8.67822Q173.387 8.93457 173.94 8.93457L173.94 7.24609Q173.94 6.74707 173.77 6.54883Q173.599 6.35059 173.243 6.33691L173.243 6.08398L176.552 6.08398L176.552 6.33691Q176.135 6.36426 175.995 6.54199Q175.854 6.71973 175.854 7.32129L175.854 8.93457Q176.196 8.93457 176.446 8.79102Q176.695 8.64746 176.818 8.4082Q176.941 8.16895 177.242 7.29395Q177.516 6.49414 177.844 6.23438Q178.172 5.97461 178.575 5.97461Q179.026 5.97461 179.368 6.27539Q179.71 6.57617 179.71 7.06836Q179.71 7.46484 179.498 7.71436Q179.286 7.96387 178.958 7.96387Q178.309 7.96387 178.295 7.04785Q178.295 6.67188 178.124 6.67188Q177.851 6.67188 177.57 7.62891Q177.276 8.62012 176.928 8.98926Q177.55 9.07813 177.816 9.27295Q178.083 9.46777 178.37 10.0557L179.204 11.7305Q179.348 12.0313 179.474 12.1201Q179.601 12.209 179.888 12.2227L179.888 12.4756L177.646 12.4756L176.292 9.74805Q176.107 9.37207 175.854 9.36523L175.854 11.4023Q175.854 11.8877 175.984 12.0278Q176.114 12.168 176.552 12.2227L176.552 12.4756L173.243 12.4756ZM184.297 12.4756L184.297 12.2227Q184.912 12.2227 184.912 11.3066L184.912 8.17578L183.08 11.3066Q183.087 12.2021 183.702 12.2227L183.702 12.4756L180.448 12.4756L180.448 12.2227Q180.838 12.2227 181.002 12.0039Q181.166 11.7852 181.166 11.2383L181.166 7.29395Q181.166 6.33691 180.448 6.33691L180.448 6.08398L183.702 6.08398L183.702 6.33691Q183.347 6.35059 183.213 6.54199Q183.08 6.7334 183.08 7.29395L183.08 10.4111L184.912 7.23926Q184.905 6.7334 184.762 6.53516Q184.618 6.33691 184.297 6.33691L184.297 6.08398L187.551 6.08398L187.551 6.33691Q187.182 6.34375 187.004 6.52148Q186.826 6.69922 186.826 7.20508L186.826 11.2725Q186.826 11.8398 186.987 12.0313Q187.147 12.2227 187.551 12.2227L187.551 12.4756L184.297 12.4756ZM188.535 6.08398L191.208 6.08398L192.828 10.0488L194.448 6.08398L197.053 6.08398L197.053 6.33691Q196.677 6.35742 196.52 6.55908Q196.362 6.76074 196.362 7.28027L196.362 11.252Q196.362 11.792 196.509 11.9971Q196.656 12.2021 197.053 12.2227L197.053 12.4756L193.683 12.4756L193.683 12.2227Q194.106 12.2158 194.277 11.9971Q194.448 11.7783 194.448 11.252L194.448 7.15723L192.22 12.4756L191.871 12.4756L189.711 7.23242L189.711 11.3613Q189.711 11.8057 189.861 12.0039Q190.012 12.2021 190.449 12.2227L190.449 12.4756L188.535 12.4756L188.535 12.2227Q188.918 12.209 189.079 12.0073Q189.239 11.8057 189.239 11.3135L189.239 7.23242Q189.239 6.76074 189.082 6.55908Q188.925 6.35742 188.535 6.33691L188.535 6.08398ZM207.99 6.08398L207.99 6.33691Q207.3 6.38477 207.3 7.2666L207.3 11.2793Q207.3 11.751 207.454 11.9731Q207.607 12.1953 207.99 12.2227L207.99 12.4756L204.702 12.4756L204.702 12.2227Q205.064 12.1953 205.225 11.9902Q205.386 11.7852 205.386 11.2793L205.386 7.2666Q205.386 6.79492 205.235 6.58301Q205.085 6.37109 204.702 6.33691L204.702 6.08398L207.99 6.08398ZM198.105 12.4756L198.105 12.2227Q198.502 12.168 198.642 11.9595Q198.782 11.751 198.782 11.1904L198.782 7.32813Q198.782 6.80859 198.635 6.60352Q198.488 6.39844 198.105 6.33691L198.105 6.08398L201.373 6.08398L201.373 6.33691Q200.963 6.39844 200.83 6.62061Q200.696 6.84277 200.696 7.42383L200.696 8.94824L201.188 8.94824Q202.856 8.94824 203.704 9.42334Q204.552 9.89844 204.552 10.7393Q204.552 11.5322 203.8 12.0039Q203.048 12.4756 201.571 12.4756L198.105 12.4756ZM200.696 9.37891L200.696 11.3682Q200.696 11.833 200.85 11.9424Q201.004 12.0518 201.223 12.0518Q201.756 12.0518 202.149 11.686Q202.542 11.3203 202.542 10.6982Q202.542 9.37891 200.696 9.37891ZM209.002 6.08398L211.675 6.08398L213.295 10.0488L214.915 6.08398L217.52 6.08398L217.52 6.33691Q217.144 6.35742 216.986 6.55908Q216.829 6.76074 216.829 7.28027L216.829 11.252Q216.829 11.792 216.976 11.9971Q217.123 12.2021 217.52 12.2227L217.52 12.4756L214.149 12.4756L214.149 12.2227Q214.573 12.2158 214.744 11.9971Q214.915 11.7783 214.915 11.252L214.915 7.15723L212.687 12.4756L212.338 12.4756L210.178 7.23242L210.178 11.3613Q210.178 11.8057 210.328 12.0039Q210.479 12.2021 210.916 12.2227L210.916 12.4756L209.002 12.4756L209.002 12.2227Q209.385 12.209 209.545 12.0073Q209.706 11.8057 209.706 11.3135L209.706 7.23242Q209.706 6.76074 209.549 6.55908Q209.392 6.35742 209.002 6.33691L209.002 6.08398Z" />
      </g>
      <g transform="translate(218.03906, 37.092773)" id="Система-управления-содержимым-">
        <path d="" />
      </g>
      <g transform="translate(0, 50.8916)" id="-">
        <path d="" />
      </g>
    </g>
  </g>
</svg>